<?xml version='1.0' encoding='UTF-8'?>
<svg xmlns="http://www.w3.org/2000/svg" font-family="ConsolasFallback,Consolas,monospace" width="985px" height="530px" font-size="16px">
<defs>
  <filter id="glow" x="-30%" y="-30%" width="160%" height="160%">
    <feGaussianBlur stdDeviation="2.5" result="coloredBlur"/>
    <feMerge><feMergeNode in="coloredBlur"/><feMergeNode in="SourceGraphic"/></feMerge>
  </filter>
  <filter id="softglow" x="-20%" y="-20%" width="140%" height="140%">
    <feGaussianBlur stdDeviation="1.5" result="coloredBlur"/>
    <feMerge><feMergeNode in="coloredBlur"/><feMergeNode in="SourceGraphic"/></feMerge>
  </filter>
</defs>
<style>
@font-face {
  src: local('Consolas'), local('Consolas Bold');
  font-family: 'ConsolasFallback';
  font-display: swap;
  -webkit-size-adjust: 109%;
  size-adjust: 109%;
}
.key   { fill: #953800; }
.value { fill: #0a3069; }
.addColor { fill: #1a7f37; }
.delColor { fill: #cf222e; }
.cc    { fill: #b0bac5; }
text, tspan { white-space: pre; }
</style>

<!-- Background -->
<rect width="985" height="530" fill="#f6f8fa" rx="15"/>

<!-- ══════ ROBOT (light palette) ══════ -->

<!-- Antenna -->
<line x1="185" y1="55" x2="185" y2="83" stroke="#0969da" stroke-width="3" stroke-linecap="round"/>
<circle cx="185" cy="46" r="11" fill="#0969da" filter="url(#glow)"/>
<circle cx="185" cy="46" r="6" fill="#cae8ff"/>

<!-- Head -->
<rect x="120" y="83" width="130" height="102" rx="20" fill="#d0d7de" stroke="#0969da" stroke-width="2"/>

<!-- Left eye -->
<rect x="137" y="105" width="38" height="32" rx="7" fill="#ffffff" stroke="#0969da" stroke-width="1.5"/>
<rect x="143" y="111" width="26" height="20" rx="4" fill="#0969da" filter="url(#glow)"/>
<rect x="149" y="114" width="8" height="7" rx="2" fill="#ffffff" opacity="0.5"/>

<!-- Right eye -->
<rect x="195" y="105" width="38" height="32" rx="7" fill="#ffffff" stroke="#0969da" stroke-width="1.5"/>
<rect x="201" y="111" width="26" height="20" rx="4" fill="#0969da" filter="url(#glow)"/>
<rect x="207" y="114" width="8" height="7" rx="2" fill="#ffffff" opacity="0.5"/>

<!-- Mouth -->
<rect x="150" y="157" width="70" height="12" rx="6" fill="#0969da" opacity="0.85"/>
<rect x="158" y="160" width="10" height="6" rx="1" fill="#cae8ff" opacity="0.6"/>
<rect x="173" y="160" width="10" height="6" rx="1" fill="#cae8ff" opacity="0.6"/>
<rect x="188" y="160" width="10" height="6" rx="1" fill="#cae8ff" opacity="0.6"/>
<rect x="203" y="160" width="10" height="6" rx="1" fill="#cae8ff" opacity="0.6"/>

<!-- Neck -->
<rect x="172" y="185" width="26" height="18" rx="5" fill="#afb8c1"/>
<rect x="178" y="187" width="4" height="14" rx="2" fill="#0969da" opacity="0.3"/>
<rect x="188" y="187" width="4" height="14" rx="2" fill="#0969da" opacity="0.3"/>

<!-- Body -->
<rect x="97" y="203" width="176" height="134" rx="16" fill="#d0d7de" stroke="#0969da" stroke-width="1.5"/>

<!-- Chest screen -->
<rect x="121" y="217" width="128" height="76" rx="8" fill="#24292f" stroke="#1a7f37" stroke-width="1.2"/>
<rect x="132" y="231" width="48" height="5" rx="2" fill="#e3b341" opacity="0.85"/>
<rect x="185" y="231" width="52" height="5" rx="2" fill="#3fb950" opacity="0.75"/>
<rect x="132" y="244" width="95" height="5" rx="2" fill="#3fb950" opacity="0.65"/>
<rect x="132" y="257" width="35" height="5" rx="2" fill="#e3b341" opacity="0.70"/>
<rect x="172" y="257" width="55" height="5" rx="2" fill="#79c0ff" opacity="0.60"/>
<rect x="132" y="270" width="78" height="5" rx="2" fill="#3fb950" opacity="0.50"/>
<rect x="132" y="283" width="9" height="5" rx="1" fill="#f0f6fc" opacity="0.75"/>

<!-- Chest buttons -->
<circle cx="140" cy="307" r="8" fill="#cf222e" filter="url(#softglow)"/>
<circle cx="163" cy="307" r="8" fill="#bf8700" filter="url(#softglow)"/>
<circle cx="186" cy="307" r="8" fill="#1a7f37" filter="url(#softglow)"/>
<circle cx="209" cy="307" r="8" fill="#0969da" filter="url(#softglow)"/>
<circle cx="232" cy="307" r="8" fill="#8250df" filter="url(#softglow)"/>

<!-- Left arm -->
<circle cx="97" cy="212" r="9" fill="#afb8c1" stroke="#0969da" stroke-width="1"/>
<rect x="54" y="208" width="42" height="108" rx="13" fill="#d0d7de" stroke="#0969da" stroke-width="1.5"/>
<rect x="47" y="307" width="49" height="36" rx="11" fill="#afb8c1" stroke="#0969da" stroke-width="1"/>
<rect x="47" y="307" width="11" height="18" rx="5" fill="#d0d7de"/>
<rect x="62" y="307" width="11" height="22" rx="5" fill="#d0d7de"/>
<rect x="77" y="307" width="11" height="20" rx="5" fill="#d0d7de"/>

<!-- Right arm -->
<circle cx="273" cy="212" r="9" fill="#afb8c1" stroke="#0969da" stroke-width="1"/>
<rect x="274" y="208" width="42" height="108" rx="13" fill="#d0d7de" stroke="#0969da" stroke-width="1.5"/>
<rect x="274" y="307" width="49" height="36" rx="11" fill="#afb8c1" stroke="#0969da" stroke-width="1"/>
<rect x="312" y="307" width="11" height="18" rx="5" fill="#d0d7de"/>
<rect x="297" y="307" width="11" height="22" rx="5" fill="#d0d7de"/>
<rect x="282" y="307" width="11" height="20" rx="5" fill="#d0d7de"/>

<!-- Left leg -->
<circle cx="147" cy="337" r="9" fill="#afb8c1" stroke="#0969da" stroke-width="1"/>
<rect x="121" y="337" width="52" height="102" rx="11" fill="#d0d7de" stroke="#0969da" stroke-width="1.5"/>
<rect x="107" y="430" width="72" height="28" rx="11" fill="#afb8c1" stroke="#0969da" stroke-width="1"/>
<rect x="107" y="444" width="72" height="14" rx="6" fill="#d0d7de" opacity="0.6"/>

<!-- Right leg -->
<circle cx="223" cy="337" r="9" fill="#afb8c1" stroke="#0969da" stroke-width="1"/>
<rect x="197" y="337" width="52" height="102" rx="11" fill="#d0d7de" stroke="#0969da" stroke-width="1.5"/>
<rect x="191" y="430" width="72" height="28" rx="11" fill="#afb8c1" stroke="#0969da" stroke-width="1"/>
<rect x="191" y="444" width="72" height="14" rx="6" fill="#d0d7de" opacity="0.6"/>

<!-- ══════ NEOFETCH INFO ══════ -->
<text x="390" y="30" fill="#c9d1d9">
<tspan x="390" y="30">joaopedro@vsjoaopedrovs</tspan> -————————————————————————————————-—-
<tspan x="390" y="50" class="cc">. </tspan><tspan class="key">OS</tspan><tspan class="cc">: ............................ </tspan><tspan class="value">Linux (Ubuntu), Windows 11</tspan>
<tspan x="390" y="70" class="cc">. </tspan><tspan class="key">Uptime</tspan><tspan class="cc">: ....................... </tspan><tspan class="value" id="age_data">16 years, 8 months, 23 days</tspan><tspan x="390" y="90" class="cc">. </tspan><tspan class="key">Host</tspan><tspan class="cc">: ......................... </tspan><tspan class="value">Colégio Farias Brito, Ceará</tspan><tspan x="390" y="110" class="cc">. </tspan><tspan class="key">Kernel</tspan><tspan class="cc">: ................. </tspan><tspan class="value">Software &amp; Robotics Dev | AI &amp; CV</tspan><tspan x="390" y="130" class="cc">. </tspan><tspan class="key">IDE</tspan><tspan class="cc">: ............................. </tspan><tspan class="value">VSCode, Jupyter Notebook</tspan>
<tspan x="390" y="150" class="cc">. </tspan>
<tspan x="390" y="170" class="cc">. </tspan><tspan class="key">Languages</tspan>.<tspan class="key">Programming</tspan><tspan class="cc">: .................. </tspan><tspan class="value">C++, Python, Dart</tspan>
<tspan x="390" y="190" class="cc">. </tspan><tspan class="key">Languages</tspan>.<tspan class="key">AI.Vision</tspan><tspan class="cc">: ............ </tspan><tspan class="value">TensorFlow, Keras, OpenCV</tspan>
<tspan x="390" y="210" class="cc">. </tspan><tspan class="key">Languages</tspan>.<tspan class="key">Markup</tspan><tspan class="cc">: .............................. </tspan><tspan class="value">JSON, YAML</tspan>
<tspan x="390" y="230" class="cc">. </tspan>
<tspan x="390" y="250" class="cc">. </tspan><tspan class="key">Achievement</tspan>.<tspan class="key">Robotics</tspan><tspan class="cc">: ............ </tspan><tspan class="value">RoboCup 2026 South Korea</tspan>
<tspan x="390" y="270" class="cc">. </tspan><tspan class="key">Achievement</tspan>.<tspan class="key">Robotics</tspan><tspan class="cc">: ......... </tspan><tspan class="value">2x LARC Champion Gold Medal</tspan>
<tspan x="390" y="310">- Contact</tspan> -——————————————————————————————————————————————-—-
<tspan x="390" y="330" class="cc">. </tspan><tspan class="key">YouTube</tspan><tspan class="cc">: ................................. </tspan><tspan class="value">@JoaoPedro-xg5hr</tspan>
<tspan x="390" y="350" class="cc">. </tspan><tspan class="key">Instagram</tspan><tspan class="cc">: ..................................... </tspan><tspan class="value">@joaopvs09</tspan>
<tspan x="390" y="370" class="cc">. </tspan><tspan class="key">GitHub</tspan><tspan class="cc">: ..................................... </tspan><tspan class="value">vsjoaopedrovs</tspan>
<tspan x="390" y="450">- GitHub Stats</tspan> -—————————————————————————————————————————-—-
<tspan x="390" y="470" class="cc">. </tspan><tspan class="key">Repos</tspan><tspan class="cc" id="repo_data_dots"> .... </tspan><tspan class="value" id="repo_data">16</tspan> {<tspan class="key">Contributed</tspan>: <tspan class="value" id="contrib_data">16</tspan>} | <tspan class="key">Stars</tspan><tspan class="cc" id="star_data_dots"> ............. </tspan><tspan class="value" id="star_data">3</tspan>
<tspan x="390" y="490" class="cc">. </tspan><tspan class="key">Commits</tspan><tspan class="cc" id="commit_data_dots"> ................... </tspan><tspan class="value" id="commit_data">128</tspan> | <tspan class="key">Followers</tspan><tspan class="cc" id="follower_data_dots"> ......... </tspan><tspan class="value" id="follower_data">7</tspan>
<tspan x="390" y="510" class="cc">. </tspan><tspan class="key">Lines of Code on GitHub</tspan><tspan class="cc" id="loc_data_dots"> ... </tspan><tspan class="value" id="loc_data">33,205</tspan> ( <tspan class="addColor" id="loc_add">34,542</tspan><tspan class="addColor">++</tspan>, <tspan id="loc_del_dots">. </tspan><tspan class="delColor" id="loc_del">1,337</tspan><tspan class="delColor">--</tspan> )
</text>
</svg>